<?xml version="1.0" encoding="utf-8"?>
<!-- Generator: Adobe Illustrator 16.0.0, SVG Export Plug-In . SVG Version: 6.00 Build 0)  -->
<!DOCTYPE svg PUBLIC "-//W3C//DTD SVG 1.1//EN" "http://www.w3.org/Graphics/SVG/1.1/DTD/svg11.dtd">
<svg version="1.1" id="Layer_1" xmlns="http://www.w3.org/2000/svg" xmlns:xlink="http://www.w3.org/1999/xlink" x="0px" y="0px"
	 width="234.71px" height="71.9px" viewBox="0 0 234.71 71.9" enable-background="new 0 0 234.71 71.9" xml:space="preserve">
<g>
	<path d="M84.773,20.706H68.51V31.92h15.689v6.62H68.51v22.219h-7.044V14.084h23.308V20.706z"/>
	<path d="M95.335,14.084V54.14h13.725v6.619H88.292V14.084H95.335z"/>
	<path d="M106.865,37.211c0-6.57,2.41-12.212,7.226-16.928c4.794-4.716,10.558-7.073,17.288-7.073
		c6.651,0,12.356,2.377,17.113,7.132c4.774,4.757,7.163,10.472,7.163,17.141c0,6.712-2.398,12.405-7.194,17.081
		c-4.817,4.694-10.631,7.042-17.442,7.042c-6.026,0-11.438-2.087-16.235-6.259C109.506,50.734,106.865,44.688,106.865,37.211z
		 M113.969,37.287c0,5.153,1.731,9.394,5.2,12.714c3.447,3.322,7.426,4.983,11.941,4.983c4.897,0,9.027-1.69,12.396-5.071
		c3.363-3.425,5.048-7.594,5.048-12.507c0-4.973-1.663-9.141-4.989-12.503c-3.307-3.384-7.396-5.073-12.271-5.073
		c-4.86,0-8.96,1.689-12.307,5.073C115.642,28.247,113.969,32.374,113.969,37.287z"/>
	<path d="M166.913,32.706l18.17-18.622h9.401l-21.103,21.131l21.224,25.543h-9.433l-16.808-20.767l-1.452,1.45v19.316h-7.042V14.084
		h7.042V32.706z"/>
	<path d="M203.292,32.706l18.167-18.622h9.402L209.76,35.215l21.222,25.543h-9.433l-16.807-20.767l-1.451,1.45v19.316h-7.044V14.084
		h7.044V32.706z"/>
</g>
<path fill="#00BBEB" d="M48.42,46.16c0,11.775-9.546,21.319-21.32,21.319c-11.774,0-21.32-9.544-21.32-21.319
	c0-14.53,12.81-38.824,21.32-38.824C35.61,7.336,48.42,31.63,48.42,46.16z"/>
<circle opacity="0.9" fill="#FFF434" cx="27.101" cy="45.312" r="12.936"/>
</svg>
